<svg id="Solid" height="512" viewBox="0 0 512 512" width="512" xmlns="http://www.w3.org/2000/svg" xmlns:xlink="http://www.w3.org/1999/xlink"><linearGradient id="linear-gradient" gradientUnits="userSpaceOnUse" x1="294.928" x2="294.928" y1="8.627" y2="511.529"><stop offset="0" stop-color="#ff91d2"/><stop offset=".262" stop-color="#f68bd9"/><stop offset=".688" stop-color="#de79ed"/><stop offset=".999" stop-color="#c86aff"/></linearGradient><linearGradient id="linear-gradient-2" x1="190.718" x2="190.718" xlink:href="#linear-gradient" y1="8.627" y2="511.529"/><linearGradient id="linear-gradient-3" x1="299.423" x2="299.423" xlink:href="#linear-gradient" y1="8.627" y2="511.529"/><linearGradient id="linear-gradient-4" x1="256" x2="256" xlink:href="#linear-gradient" y1="8.627" y2="511.529"/><linearGradient id="linear-gradient-5" x1="203.215" x2="203.215" xlink:href="#linear-gradient" y1="8.627" y2="511.529"/><g><path d="m299.069 291.971a16.1 16.1 0 0 0 -4.167-.552 16.049 16.049 0 1 0 4.167.552z" fill="url(#linear-gradient)"/><path d="m192.789 295.2a8 8 0 1 0 4.857 3.727 7.946 7.946 0 0 0 -4.857-3.727z" fill="url(#linear-gradient-2)"/><path d="m297.355 210.943a8 8 0 1 0 -4.857-3.728 7.956 7.956 0 0 0 4.857 3.728z" fill="url(#linear-gradient-3)"/><path d="m484.42 299.636a24.008 24.008 0 0 0 -40.666-1.451l-31.325-8.546a159.638 159.638 0 0 0 3.129-46.6 15.955 15.955 0 0 0 12.032 4.359c8.818-.563 7.526-7.659 6.963-16.477s-.186-16.021-9-15.458a15.985 15.985 0 0 0 -12.822 7.942 159.86 159.86 0 0 0 -14.47-40.644l21.269-13.424a24 24 0 1 0 -7.214-14.367l-22.087 13.94a159.8 159.8 0 0 0 -27.629-32.339 15.983 15.983 0 0 0 13.288-7.134c4.9-7.355-1.529-10.629-8.884-15.526s-12.854-9.564-17.751-2.209a15.951 15.951 0 0 0 -2.241 12.6 159.665 159.665 0 0 0 -41.847-20.567l10.095-31.635a24 24 0 1 0 -15.82-3.056l-9.75 30.543a159.975 159.975 0 0 0 -40.22-3.526 15.929 15.929 0 0 0 1.292-6.262c.026-8.836-7.139-8.021-15.976-8.047s-16-.884-16.024 7.952a15.931 15.931 0 0 0 3.354 9.85 159.911 159.911 0 0 0 -39.359 14.195l-13.424-21.274a24 24 0 1 0 -14.367 7.214l13.94 22.087a159.865 159.865 0 0 0 -31.455 26.654 15.929 15.929 0 0 0 -6.851-7.83c-7.666-4.4-10.5 2.235-14.9 9.9s-8.684 13.463-1.019 17.859a15.951 15.951 0 0 0 6.069 2.012 159.939 159.939 0 0 0 -17.036 36.533l-31.43-8.574a23.989 23.989 0 1 0 -4.037 15.483l31.325 8.546a159.638 159.638 0 0 0 -3.129 46.6 15.954 15.954 0 0 0 -12.032-4.359c-8.818.563-7.526 7.659-6.963 16.477s.186 16.021 9 15.457a15.982 15.982 0 0 0 12.826-7.934 159.794 159.794 0 0 0 14.214 40.145l-22.937 12.264a24 24 0 1 0 8.685 13.5l22.234-11.889a159.87 159.87 0 0 0 27.935 32.809 15.983 15.983 0 0 0 -13.288 7.134c-4.9 7.355 1.529 10.629 8.884 15.526s12.854 9.564 17.751 2.209a15.952 15.952 0 0 0 2.241-12.6 159.624 159.624 0 0 0 41.913 20.588l-8.574 31.43a23.984 23.984 0 1 0 15.483 4.036l8.546-31.324a160.344 160.344 0 0 0 33.9 3.64q3.138 0 6.27-.125a15.929 15.929 0 0 0 -1.292 6.262c-.026 8.836 7.139 8.021 15.976 8.047s16 .884 16.024-7.952a15.932 15.932 0 0 0 -3.353-9.849 159.944 159.944 0 0 0 38.859-13.939l12.265 22.936a24 24 0 1 0 13.5-8.685l-11.89-22.233a159.924 159.924 0 0 0 31.929-26.96 15.929 15.929 0 0 0 6.851 7.83c7.666 4.4 10.5-2.235 14.9-9.9s8.684-13.463 1.019-17.859a15.951 15.951 0 0 0 -6.069-2.012 159.939 159.939 0 0 0 17.036-36.533l31.43 8.574a24 24 0 1 0 44.7-14.032zm-161.42 72.411a134.069 134.069 0 0 1 -183.047-49.047c-36.944-63.989-14.942-146.1 49.047-183.047s146.1-14.942 183.047 49.047 14.942 146.1-49.047 183.047z" fill="url(#linear-gradient-4)"/><path d="m199.074 228.029a16 16 0 1 0 8.282-30.91 16.1 16.1 0 0 0 -4.167-.552 16 16 0 0 0 -4.115 31.462z" fill="url(#linear-gradient-5)"/><path d="m286.525 142.078a119.018 119.018 0 0 0 -30.817-4.085 118.564 118.564 0 1 0 30.817 4.085zm-10.281 54.922a23.99 23.99 0 1 1 23.22 30.223 24.094 24.094 0 0 1 -6.25-.829 24 24 0 0 1 -16.97-29.394zm-103.938 7.289a31.987 31.987 0 1 1 30.962 40.3 32.169 32.169 0 0 1 -8.335-1.1 32 32 0 0 1 -22.627-39.192zm-20.516 47.211 13.856-8 8 13.857-13.856 8zm62.11 57.64a24.028 24.028 0 0 1 -23.143 17.8 24.094 24.094 0 0 1 -6.251-.828 24 24 0 0 1 -5.789-43.966 24 24 0 0 1 35.182 27zm12.818 56.142-8-13.856 13.856-8 8 13.856zm16.5-83.426-8-13.856 13.857-8 8 13.856zm4.5-104.21-8-13.856 13.856-8 8 13.856zm78.125 138.062a32.038 32.038 0 0 1 -30.858 23.731 32.167 32.167 0 0 1 -8.334-1.1 32 32 0 1 1 39.192-22.627zm20.516-47.21-8-13.857 13.856-8 8 13.857z" fill="url(#linear-gradient-4)"/></g></svg>